<?xml version="1.0" encoding="utf-8"?>
<!-- Generator: Adobe Illustrator 28.2.0, SVG Export Plug-In . SVG Version: 6.00 Build 0)  -->
<svg version="1.1" id="Layer_1" xmlns="http://www.w3.org/2000/svg" xmlns:xlink="http://www.w3.org/1999/xlink" x="0px" y="0px"
	 viewBox="0 0 5000 5000" style="enable-background:new 0 0 5000 5000;" xml:space="preserve">
<style type="text/css">
	.st0{fill:url(#SVGID_1_);}
	.st1{fill:url(#SVGID_00000034804086233686118030000010714324582567498173_);}
	.st2{fill:url(#SVGID_00000155105054460609128940000015193421518265843894_);}
	.st3{fill:url(#SVGID_00000066480104244103028220000005281950792311430017_);}
	.st4{fill:url(#SVGID_00000054981944455868973870000016053546936155978385_);}
	.st5{fill:url(#SVGID_00000116914737977572753670000008252148515209993356_);}
	.st6{fill:url(#SVGID_00000138536030421872353140000015049487467082254258_);}
	.st7{fill:url(#SVGID_00000129187462132405624090000006988975361687950221_);}
	.st8{fill:url(#SVGID_00000017489380039896328650000011573793999954666686_);}
	.st9{fill:url(#SVGID_00000102504877837825798320000006271882503668230785_);}
	.st10{fill:url(#SVGID_00000134232549748451269160000012892115126833810867_);}
	.st11{fill:url(#SVGID_00000072983373884214227460000008756327812865230220_);}
	.st12{fill:url(#SVGID_00000183967408985515060170000013551136186704968623_);}
	.st13{fill:url(#SVGID_00000037663017325195071670000003127478518103135889_);}
	.st14{fill:url(#SVGID_00000173855786419042373360000000873520766285970619_);}
	.st15{fill:url(#SVGID_00000035509923577876479250000010333322342155067536_);}
	.st16{fill:url(#SVGID_00000062159110814534649830000017134244286098463369_);}
</style>
<g>
	<linearGradient id="SVGID_1_" gradientUnits="userSpaceOnUse" x1="206.7848" y1="2515.6069" x2="1906.1891" y2="2482.9263">
		<stop  offset="1.438503e-07" style="stop-color:#7339AB"/>
		<stop  offset="1" style="stop-color:#322A72"/>
	</linearGradient>
	<path class="st0" d="M2218.4,2497c-32.3,31.3-72.6,47.1-116.7,54.3c-40.4,6.6-81.2,7.2-121.8,11.1c-55.8,5.4-109.9,16.7-158.9,45.5
		c-13.7,8.1-26.6,17.4-39.4,26.6c-15.2,13.2-30.2,26.7-43.3,42.1c-34.3,40.4-55.9,87.1-68.2,138.3c-7.3,30.2-11.1,60.9-12.9,92
		c-1.6,28.9-2.4,57.8-6.1,86.5c-14.1,108.5-90.4,187-191.6,206.6c-10.3,2-20.5,4.1-31.1,4c-23.6,2.8-47.2,1.3-70.5-3
		c-58-10.8-106.8-38.2-144.8-83.7c-29.9-35.8-47.7-77.1-54.4-123.2c-4-27.4-5.3-55-6.7-82.7c-0.7-14.1-1.8-28.2-2.8-42.3
		c0.6-7.9-0.9-15.6-2.2-23.3c-0.5-2.9-0.1-6.1-2.4-8.3c-0.1-0.4-0.4-0.7-1-0.8c-1.4-6.4-3.1-12.6-3.4-19.2
		c0.2-5.3-0.4-10.3-4.3-14.3c-1.2-2.9-2.5-5.7-2.2-8.9c0-5.4-1-10.4-4.9-14.4c-3.7-8.5-7.4-16.9-10.9-25.4
		c-5.4-13.1-12.8-25.2-20.1-37.3c-0.5-0.9-0.9-1.9-1.4-2.9c-2.8-9.8-8.1-17.8-16.8-23.2c0.5-4.2-0.3-7.2-5.6-6.4
		c-1.8-1.5-3.6-3-4.7-5.2c-16.7-17-34.5-32.7-54.7-45.6c-40.7-26.1-85.4-41.4-132.6-50.5c-3.3-0.6-6.6-1.4-10-2.1
		c-23.1-3.2-46.2-6.8-69.4-9.3c-24.1-2.6-48.2-4.6-72.3-6.2c-33-2.2-66-3.7-98.9-5.7c-7-0.4-14.1-1.3-21.1-2
		c-24.7-1.4-48.9-5.9-72.8-11.7c-79.9-19.5-147.1-59.6-199-123.8c-34.7-42.8-60.9-90.2-74-144.1c-4.4-18.3-7.9-36.8-9.3-55.6
		c-0.1-0.8-0.5-1.6-0.8-2.4v-79.9c2.4-16.7,4.7-33.4,8.4-49.9c11.8-52.7,33.7-100.8,66-144c47.7-63.7,109.7-108.1,185.2-133.3
		c35-11.6,70.9-18.4,107.8-19.2c47.8-1.8,93.8,7.3,138.3,24.4c20,7.7,39.5,16.5,57.6,28.2c21.3,11.4,40.6,25.7,58.9,41.4
		c53,45.4,92.3,100.2,114.5,166.6c10.8,32.3,15.3,65.8,18.1,99.5c4,48.3,3.8,96.9,8,145.2c6.7,78.6,23.6,154.9,55.8,227.3
		c7.3,16.5,16.2,32.2,26.4,47.1c1.3,1.9,3.2,3.5,3.5,6c14.3,20.2,30.8,38.4,50.6,53.3c42.3,31.8,90,50.9,142.2,59.5
		c25.4,4.2,51,6.4,76.5,8.9c1.9,0.2,3.9,0.4,5.8,0.6c20.2-0.2,40.4,0.4,60.5-0.8c50.6-3.1,100.9-9,149.1-25.9
		c68.3-24,119.4-68.9,156-130.9c15.6-26.4,26.7-54.7,36.2-83.7c5.3-20.5,10.5-41,13.5-62.1c3.9-27.2,6.2-54.4,6.2-81.9
		c0.1-29,2.2-57.9,12-85.6c32.5-91.9,94.3-152.8,190.8-173.3c60.3-12.8,118-0.4,171,31c58.4,34.5,98.9,84.3,115.7,150.1
		C2314.2,2338.1,2292.3,2425.4,2218.4,2497z"/>
	
		<linearGradient id="SVGID_00000040548024249200402430000010733395629186997928_" gradientUnits="userSpaceOnUse" x1="210.8072" y1="2724.7698" x2="1910.2114" y2="2692.0891">
		<stop  offset="1.438503e-07" style="stop-color:#7339AB"/>
		<stop  offset="1" style="stop-color:#322A72"/>
	</linearGradient>
	<path style="fill:url(#SVGID_00000040548024249200402430000010733395629186997928_);" d="M1378,2702.7c-1.9-0.2-3.8-0.4-5.8-0.6
		C1374.2,2702.1,1376.1,2702.3,1378,2702.7z"/>
	
		<linearGradient id="SVGID_00000143617636022799138700000001946340899015535797_" gradientUnits="userSpaceOnUse" x1="210.6489" y1="2716.5403" x2="1910.0532" y2="2683.8596">
		<stop  offset="1.438503e-07" style="stop-color:#7339AB"/>
		<stop  offset="1" style="stop-color:#322A72"/>
	</linearGradient>
	<path style="fill:url(#SVGID_00000143617636022799138700000001946340899015535797_);" d="M1096.4,2714.6
		c-4.4-8.6-9.7-16.6-16.8-23.2c0,0,0,0,0,0c0,0,0,0,0,0c0,0-0.1-0.1-0.1-0.1c0,0,0,0,0,0c-1-2.9-2.4-5.3-5.6-6.4
		c5.2-0.8,6.1,2.2,5.6,6.4C1088.3,2696.8,1093.6,2704.8,1096.4,2714.6z"/>
	
		<linearGradient id="SVGID_00000004517967766374698600000001219359323605326754_" gradientUnits="userSpaceOnUse" x1="212.3509" y1="2805.0413" x2="1911.7551" y2="2772.3606">
		<stop  offset="1.438503e-07" style="stop-color:#7339AB"/>
		<stop  offset="1" style="stop-color:#322A72"/>
	</linearGradient>
	<path style="fill:url(#SVGID_00000004517967766374698600000001219359323605326754_);" d="M1128.9,2780.1c3.9,4.1,4.9,9.1,4.9,14.4
		C1132.6,2789.6,1131.4,2784.6,1128.9,2780.1z"/>
	
		<linearGradient id="SVGID_00000178170007040795709200000013947091803309178294_" gradientUnits="userSpaceOnUse" x1="212.8006" y1="2828.4275" x2="1912.2048" y2="2795.7466">
		<stop  offset="1.438503e-07" style="stop-color:#7339AB"/>
		<stop  offset="1" style="stop-color:#322A72"/>
	</linearGradient>
	<path style="fill:url(#SVGID_00000178170007040795709200000013947091803309178294_);" d="M1135.9,2803.5c3.8,4.1,4.5,9.1,4.3,14.3
		C1139.4,2812.8,1138.4,2807.9,1135.9,2803.5z"/>
	
		<linearGradient id="SVGID_00000000939009685269994930000013696737333625228723_" gradientUnits="userSpaceOnUse" x1="213.629" y1="2871.5022" x2="1913.0332" y2="2838.8213">
		<stop  offset="1.438503e-07" style="stop-color:#7339AB"/>
		<stop  offset="1" style="stop-color:#322A72"/>
	</linearGradient>
	<path style="fill:url(#SVGID_00000000939009685269994930000013696737333625228723_);" d="M1149.2,2869.3c-0.8-10.1-2.2-20-4.3-29.9
		c-0.1-0.6-0.1-1.2-0.3-1.7c2.3,2.2,1.9,5.4,2.4,8.3C1148.4,2853.7,1149.8,2861.4,1149.2,2869.3z"/>
	
		<linearGradient id="SVGID_00000163067198747277211630000014064305195723242396_" gradientUnits="userSpaceOnUse" x1="215.7634" y1="2982.4915" x2="1915.1676" y2="2949.8105">
		<stop  offset="1.438503e-07" style="stop-color:#7339AB"/>
		<stop  offset="1" style="stop-color:#322A72"/>
	</linearGradient>
	<path style="fill:url(#SVGID_00000163067198747277211630000014064305195723242396_);" d="M4744.5,2858.8c0,46.2-0.6,92.3,0.2,138.5
		c0.5,28.5-0.9,57,0.8,85.4c0.7,12.6-12.9,24.9-25.4,23.6c-18.5-2-36.9,1.4-55.3-0.1c-10.4-0.8-20-4.3-26.3-13.7
		c-1.7-2.5-2.3-4.9-2.3-7.8c-0.1-40.4-0.7-80.7-0.4-121.1c0.1-11.7-12.2-23.2-23.6-23.8c-26.8-1.5-53.6-0.6-80.5-1
		c-13.2-0.2-23.9,11-24.1,23.4c-0.4,33.9-0.5,67.9,0.1,101.8c0.2,10.5,2,20.9-2.8,30.9c-3,6.2-11.9,12.1-18.9,12
		c-21.9-0.1-43.8-0.1-65.6-0.1c-9.1,0-21.5-12.2-21.4-21.4c0.2-10.7,1.4-21.5,1-32.2c-1.3-33.2-1-66.5-1-99.7
		c0-32.4-0.4-64.9,0.1-97.3c0.3-20.6,1.6-41.1,0.7-61.7c-1.2-27.2-1.8-54.4-0.5-81.5c0.7-14.4,9-21.7,23.9-22.1
		c21.5-0.6,42.9,0.7,64.4,0.3c12-0.2,20.1,8.2,21,22.1c1.4,23.2-1.4,46.3-1,69.4c0.3,13.3,0.6,26.6,1.1,39.9
		c0.4,9.8,10.2,19.6,20.3,19.6c25.1-0.2,50.2,1.4,75.2-1.5c2.1-0.2,4.3-0.1,6.4,0.3c14.5,2.2,26.4-8,26.3-22.9
		c-0.2-34.3-0.4-68.6-0.9-102.9c-0.1-6.9,3.3-12.3,5.5-18.3c0.8-2.2,3-2,4.8-2.6c14.4-5.1,29.4-2.7,44.1-3
		c10.9-0.2,21.9,0.2,32.9,0.3c2.1,0,4.2,0.2,6.3,0.8c12.1,3,15.3,11.2,15.3,22.1c0.2,48.1,0.1,96.2,0.1,144.3
		C4744.9,2858.8,4744.7,2858.8,4744.5,2858.8z"/>
	
		<linearGradient id="SVGID_00000028292597250568740110000017495853911331764117_" gradientUnits="userSpaceOnUse" x1="215.5952" y1="2973.748" x2="1914.9995" y2="2941.0671">
		<stop  offset="1.438503e-07" style="stop-color:#7339AB"/>
		<stop  offset="1" style="stop-color:#322A72"/>
	</linearGradient>
	<path style="fill:url(#SVGID_00000028292597250568740110000017495853911331764117_);" d="M4143.1,2684.5
		c11.4-1.3,24.4,1.2,37.3,2.6c9.6,1.1,18.7,6.2,28.3,8.5c25.8,6.3,47.8,19.9,69.1,34.9c8.5,6,16.1,13.7,21.3,22.9
		c5.4,9.5,12.7,17.7,18.5,27.1c8.4,13.4,11.9,28.4,16.2,43.1c2.5,8.6-6.4,17.4-17.2,18.8c-17.4,2.3-34.7-0.8-52-0.4
		c-6.2,0.2-12.4,2-18.9-1c-9.4-4.3-16.2-11.2-22.3-19c-7-9-15.2-17-23.7-24.5c-10.8-9.4-24.6-12.2-38-14.3
		c-19.3-3-38.6,0.2-57.5,3.7c-15.1,2.8-26.7,12.5-37,23.2c-22.4,23.3-31.3,52-31.3,83.9c0,14.6-0.8,29.3,4.3,43.3
		c8,22.4,17.5,44.4,38.3,57.9c22.1,14.3,46,23.2,73.5,20.9c29.6-2.4,51.9-16.5,70-38.9c2-2.5,3.1-5.7,4.8-8.3
		c8-12.2,18.1-20.6,34-20.3c18.6,0.3,37.2,1.9,55.9-0.5c11.9-1.6,22,12,18,23.2c-6.9,19.1-11.6,39.1-23.1,56.4
		c-11.3,16.9-24.5,31.8-40.3,44.7c-16.6,13.6-35.6,22.6-55.3,29.6c-17.8,6.4-37.1,8-56.3,9.6c-20.1,1.7-39.9-0.5-59.7-1.8
		c-12.7-0.8-24.6-6-36.5-9.9c-17.2-5.6-33.7-13.4-48.7-23.2c-12.2-8-22.1-18.9-33.1-28.5c-20.2-17.6-29.9-41.6-41-64.7
		c-8.9-18.6-12-38.7-14.2-59c-3.4-32.2,0.4-63.8,8.5-94.8c6.9-26.4,19.9-50.3,38.3-70.7c18.6-20.6,39.2-38.5,64.5-51.3
		c22.9-11.5,47.2-16.2,71.7-21.3C4119.9,2684.4,4130.6,2684,4143.1,2684.5z"/>
	
		<linearGradient id="SVGID_00000067939724040499114240000010587607829185032382_" gradientUnits="userSpaceOnUse" x1="215.4533" y1="2966.3701" x2="1914.8575" y2="2933.6892">
		<stop  offset="1.438503e-07" style="stop-color:#7339AB"/>
		<stop  offset="1" style="stop-color:#322A72"/>
	</linearGradient>
	<path style="fill:url(#SVGID_00000067939724040499114240000010587607829185032382_);" d="M3804.7,2785.1c-14,0-28-0.8-41.8,0.3
		c-11.2,0.9-22.6,0.5-33.5,3.9c-7.2,2.3-11.7,8.7-11.9,16.2c-0.2,8.8-0.3,17.5,2.6,26.1c2.6,7.8,8.1,13.6,16.3,13.1
		c20.8-1.5,41.6,0.7,62.4,0c12.4-0.4,24.9-0.5,37.3-0.8c3.1-0.1,5.7,1,8.6,2.1c13.1,5.4,16,16.4,16,28.7c0,14.4-0.8,28.7-1.2,43.1
		c-0.1,2.6-0.4,5.1-1.3,7.6c-3.3,9.5-9.5,13.2-19.7,13.4c-21.5,0.4-42.9-0.3-64.4,1c-11.3,0.7-22.6-1.7-34-1.2
		c-13.8,0.6-21.2,10.6-22,22.2c-0.7,10.5-0.3,21-0.1,31.6c0.2,10.6,10.1,19.6,20.9,18.8c12.4-1,24.7,1.7,37.1,1.1
		c6.2-0.3,12.4,0.2,18.6-0.7c15-2.1,30-1,44.9,0.3c4.3,0.4,8.6,0.8,12.8,0.2c15.4-2.1,26.8,10,25.9,25c-0.9,15.2-0.3,30.5-0.1,45.7
		c0,4.2-1.2,7.8-2.8,11.6c-3.8,8.8-11.3,11.8-19.5,12c-26.2,0.8-52.4,1.7-78.6,0.9c-16.6-0.5-33.3,1.2-50-1.7
		c-13.2-2.2-27,0.3-40.4,1c-16.6,0.8-33.1,0.3-49.6-0.3c-7.5-0.3-16-3-20.3-9.4c-3.6-5.3-5.2-12.7-5.3-19.6
		c-0.2-11.8-0.4-23.6,0.7-35.4c0.6-6.4,0.7-12.8-0.5-19.2c-1.6-8.3,0.6-16.7,0.6-25c0-28.3,1.2-56.7,0.1-85
		c-0.7-17.8-1.4-35.6-0.8-53.3c1-29.5,0.1-59.1,0-88.6c-0.1-18.9,1.1-38,0-57c-0.9-14.6,8.5-21.5,21.7-22.2
		c13.7-0.7,27.3,0.8,41-1.4c7-1.1,14,1.6,21.1,1.2c24.7-1.2,49.3-0.3,74,0.2c18.8,0.4,37.8-2,56.6-1.1c11.4,0.6,23,1.1,34.2,4.4
		c8.3,2.4,10.9,9.3,11.3,16.2c1.1,17.9,1.4,35.9,1.4,53.9c0,10.8-12.2,21-23.7,21.3c-14.8,0.4-29.6,0.1-44.5,0.1
		C3804.7,2785.8,3804.7,2785.5,3804.7,2785.1z"/>
	
		<linearGradient id="SVGID_00000000205771497078970800000007013878470531676808_" gradientUnits="userSpaceOnUse" x1="214.9962" y1="2942.6001" x2="1914.4005" y2="2909.9192">
		<stop  offset="1.438503e-07" style="stop-color:#7339AB"/>
		<stop  offset="1" style="stop-color:#322A72"/>
	</linearGradient>
	<path style="fill:url(#SVGID_00000000205771497078970800000007013878470531676808_);" d="M2720.1,3088.5c-0.1-1.5-0.6-2.9-1-4.4
		c-4.5-15-10.5-29.5-18-43.3c-12-22.1-21.9-45.2-31.8-68.1c-11.8-27.3-25.8-53.5-36.6-81.3c-7.6-19.7-19.5-37.5-27.5-57.3
		c-6.9-17.3-15.5-34-23.8-50.7c-12.5-25.1-21.3-51.9-35.2-76.3c-5.2-9.2-12.5-15.1-22.9-19.1c-13.6-5.2-35.9,6.8-40.7,17.3
		c-9.6,21-20.2,41.6-28.9,63c-4.1,10.1-10.8,19.3-14.5,29.2c-4.4,11.8-9.6,23.4-14.7,34.7c-24,52.8-49.9,104.7-73.1,157.9
		c-11,25.1-22.9,50-35,74.7c-3.1,6.4-6.3,12.6-8.1,19.5c-3.1,12.1,3.3,22,15.5,21.3c15.9-0.9,31.8,0.8,47.6-0.1
		c4.7-0.2,9.4-0.6,14.2-0.7c14.8-0.4,25.7-7.2,32.7-20.1c4.7-8.7,9.6-17.2,17.4-23.7c4.7-3.9,10.1-8.7,15.6-7.9
		c16.7,2.3,33.3-0.6,49.9,0c25.2,0.9,50.6,1.8,75.8-0.2c1.4-0.1,2.9,0.6,4.2,1.1c14.5,5.9,24.9,15.7,28.8,31.4
		c0.7,2.7,1.6,5.1,4.1,7.1c12.5,10.2,26.3,15.7,42.8,13.7c6.5-0.8,13.1-1.9,19.9-0.9c10.3,1.5,20.6,1,30.8-0.7
		C2718.8,3103.1,2721,3100,2720.1,3088.5z M2535.9,2958.8c-3.6,0.2-7.3,0-10.3,0c-12.2,1.3-23.4-2.8-35.1-1.5
		c-8.8,0.9-13.6-8.1-9.8-17.1c8.3-19.7,17-39.3,25.6-58.9c1.6-3.6,4.5-7.4,8.2-7.1c3.7,0.3,7.4,3,9.2,7.2
		c8.3,19.7,16.8,39.4,25.1,59.1C2552.2,2948.7,2545.4,2958.2,2535.9,2958.8z"/>
	
		<linearGradient id="SVGID_00000083058034174127516730000014826099482599337405_" gradientUnits="userSpaceOnUse" x1="215.1202" y1="2949.0488" x2="1914.5245" y2="2916.3682">
		<stop  offset="1.438503e-07" style="stop-color:#7339AB"/>
		<stop  offset="1" style="stop-color:#322A72"/>
	</linearGradient>
	<path style="fill:url(#SVGID_00000083058034174127516730000014826099482599337405_);" d="M2991.8,3010.8
		c14.1,1.2,30.1-1.4,45.7,2.8c10,2.7,14.2,6.4,14.5,16.9c0.3,10.7,1.8,21.4-0.7,32.1c-0.5,2.1-0.1,4.2,0.1,6.4
		c1.1,8.6,0.7,17.1-2.9,25.2c-2.9,6.7-10.5,12.1-18,12c-17.4-0.2-34.8-1.3-52.2-0.8c-39.3,1-78.6,0.7-117.9,0.2
		c-18.7-0.2-37.4-0.8-56.1-0.3c-10.7,0.2-21.1,1.9-31.7-1.3c-8.1-2.5-12.2-9.1-9.2-17.6c4.6-13,12.7-23.8,21.6-34
		c4.2-4.7,8.1-9.3,10.8-15c2.6-5.4,5.7-10.7,9.8-15.1c7.8-8.3,12.4-18.8,18.9-28c6.1-8.7,12.2-17.5,18.1-26.5
		c18.7-28.8,40.8-55.2,57.3-85.5c5.7-10.5,16.1-17.1,21.6-27.9c8-15.7,14.7-31.3,12.1-49.6c-1.5-10.2-11.3-21.3-21.6-22.4
		c-15.1-1.6-30.1-2.5-42.6,9c-2.4,2.3-4.3,4.6-5.6,7.7c-6.5,15.4-12.7,22.4-32.1,21.4c-14.1-0.7-28.4-0.1-42.5-0.5
		c-12.6-0.3-20.8-12.2-19.9-24.4c1.5-20.1,9.4-38,19.3-54.6c9.9-16.6,24.5-29.7,41.8-39.1c29.1-15.7,60.4-18,92.6-14
		c6.8,0.8,13.6,1.7,20.4,2.4c11.5,1.2,21,7,30.5,12.9c14.2,8.9,30,16.3,39,31c12.7,20.9,25.2,41.8,27.1,67.7
		c1.5,21.5-3.6,40.5-11,60.3c-8.4,22.2-23.1,39.9-35.7,59.1c-14.2,21.8-31.6,41.2-46.5,62.4c-3.7,5.2-7.7,10.3-8.7,16.9
		c-0.7,4.6,1,7,5.7,8c5.9,1.2,11.7,2.3,17.8,2.1C2971.2,3010.6,2980.7,3010.8,2991.8,3010.8z"/>
	
		<linearGradient id="SVGID_00000155837052515211294740000011346362649294109364_" gradientUnits="userSpaceOnUse" x1="215.304" y1="2958.6035" x2="1914.7083" y2="2925.9226">
		<stop  offset="1.438503e-07" style="stop-color:#7339AB"/>
		<stop  offset="1" style="stop-color:#322A72"/>
	</linearGradient>
	<path style="fill:url(#SVGID_00000155837052515211294740000011346362649294109364_);" d="M3306.9,2786.1
		c-11.4-0.4-22.7-1.4-34.1-0.3c-9.2,0.9-18.4-7.3-19.8-19.6c-1.8-15.8,0.4-31.7,0-47.5c-0.1-5.6,0-10.8,3.1-16
		c5.9-9.8,12.3-13.1,23.5-12.4c14.7,0.9,29.5,2.8,44.3,0.9c9.6-1.2,19.3-0.2,29,0.4c7.5,0.5,15,1.1,22.3-1.5
		c0.4-0.1,0.9-0.3,1.3-0.2c15.4,3,30.9-1.6,46.7,1.4c12.3,2.3,25.6-0.1,38.5-0.7c27.2-1.2,54.3-0.2,81.5,0.3
		c9.7,0.2,19.5,11.8,19.9,22.2c0.6,16.7,0.7,33.5-0.3,50.2c-0.5,9.3-10.7,22.5-23.5,23.1c-16.8,0.8-33.2-2-49.9-1.7
		c-23.4,0.4-26.7,10-28.1,29.6c-3.1,42.4,0.8,84.9-0.8,127.3c-0.5,13.7-0.1,27.4,0.8,41.1c0.6,10.3,0.5,21-0.4,31.4
		c-1.7,20.5,2,41.1-0.3,61.6c-0.9,7.7-3.4,14.5-5.7,21.6c-0.6,1.7-1.8,2.7-3.6,3.3c-7.7,2.6-15.2,5.6-23.6,5.5
		c-12-0.2-24,0.6-36.1,0.6c-6.8,0-13.5-0.9-20.3-2.7c-8.5-2.2-13-7.5-16.6-14.7c-0.9-1.8-1-3.5-0.9-5.5c0.7-13.7,2.5-27.5,1.5-41.1
		c-1.1-15-0.7-30-0.7-45c0-21.8,2.1-43.7,0.7-65.5c-1.3-19.7-1.3-39.5-0.6-59.2c0.7-20.3-0.6-40.6-0.1-60.9
		c0.4-17.5-8-26.2-25.8-26.2C3321.4,2786.1,3314.2,2786.1,3306.9,2786.1z"/>
	
		<linearGradient id="SVGID_00000036221659285555861110000005341937563364960408_" gradientUnits="userSpaceOnUse" x1="210.7118" y1="2719.8091" x2="1910.1161" y2="2687.1282">
		<stop  offset="1.438503e-07" style="stop-color:#7339AB"/>
		<stop  offset="1" style="stop-color:#322A72"/>
	</linearGradient>
	<path style="fill:url(#SVGID_00000036221659285555861110000005341937563364960408_);" d="M1079.6,2691.4L1079.6,2691.4
		c0,0-0.1-0.1-0.1-0.1C1079.5,2691.3,1079.5,2691.3,1079.6,2691.4C1079.6,2691.3,1079.6,2691.3,1079.6,2691.4
		c8.8,5.4,14,13.4,16.8,23.2C1090.8,2706.8,1085.2,2699.1,1079.6,2691.4z"/>
	
		<linearGradient id="SVGID_00000107567179966713818390000014259449100082836649_" gradientUnits="userSpaceOnUse" x1="213.6212" y1="2871.0974" x2="1913.0254" y2="2838.4167">
		<stop  offset="1.438503e-07" style="stop-color:#7339AB"/>
		<stop  offset="1" style="stop-color:#322A72"/>
	</linearGradient>
	<path style="fill:url(#SVGID_00000107567179966713818390000014259449100082836649_);" d="M1149.2,2869.3
		c-1.9-10.8-3.8-21.6-5.6-32.4c0.4,0.2,0.7,0.5,1,0.8c2.3,2.2,1.9,5.4,2.4,8.3C1148.4,2853.7,1149.8,2861.4,1149.2,2869.3z"/>
	
		<linearGradient id="SVGID_00000046308325750840298390000008344767070887668624_" gradientUnits="userSpaceOnUse" x1="212.3509" y1="2805.0413" x2="1911.7551" y2="2772.3606">
		<stop  offset="1.438503e-07" style="stop-color:#7339AB"/>
		<stop  offset="1" style="stop-color:#322A72"/>
	</linearGradient>
	<path style="fill:url(#SVGID_00000046308325750840298390000008344767070887668624_);" d="M1133.8,2794.6c-2.1-4.6-3.8-9.4-4.9-14.4
		C1132.7,2784.2,1133.7,2789.2,1133.8,2794.6z"/>
	
		<linearGradient id="SVGID_00000030459795930501915390000003791932266066017463_" gradientUnits="userSpaceOnUse" x1="210.423" y1="2704.793" x2="1909.8273" y2="2672.1121">
		<stop  offset="1.438503e-07" style="stop-color:#7339AB"/>
		<stop  offset="1" style="stop-color:#322A72"/>
	</linearGradient>
	<path style="fill:url(#SVGID_00000030459795930501915390000003791932266066017463_);" d="M1079.6,2691.3
		C1079.6,2691.4,1079.6,2691.4,1079.6,2691.3C1079.6,2691.4,1079.6,2691.4,1079.6,2691.3L1079.6,2691.3c-2.6-1.5-4-4-5.6-6.4
		C1079.2,2684.2,1080.1,2687.2,1079.6,2691.3z"/>
	
		<linearGradient id="SVGID_00000027592351607983690580000012693182701385052831_" gradientUnits="userSpaceOnUse" x1="212.8006" y1="2828.4275" x2="1912.2048" y2="2795.7466">
		<stop  offset="1.438503e-07" style="stop-color:#7339AB"/>
		<stop  offset="1" style="stop-color:#322A72"/>
	</linearGradient>
	<path style="fill:url(#SVGID_00000027592351607983690580000012693182701385052831_);" d="M1140.2,2817.8c-2.4-4.5-2.7-9.6-4.3-14.3
		C1139.8,2807.5,1140.4,2812.5,1140.2,2817.8z"/>
</g>
</svg>
