<svg width="47" height="47" viewBox="0 0 47 47" fill="none" xmlns="http://www.w3.org/2000/svg">
<rect x="0.0686035" y="0.108398" width="46.0821" height="46.0201" rx="23.0101" fill="#FF5FA5"/>
<path d="M34.662 18.2281C35.2923 18.2281 35.8032 17.7132 35.8032 17.0779C35.8032 16.4427 35.2923 15.9277 34.662 15.9277C34.0317 15.9277 33.5208 16.4427 33.5208 17.0779C33.5208 17.7132 34.0317 18.2281 34.662 18.2281Z" fill="white"/>
<path d="M33.7498 21.7685C33.7498 23.8679 32.0613 25.5697 29.9783 25.5697C27.8952 25.5697 26.2067 23.8679 26.2067 21.7685V15.9277H24.1533V21.9502H24.1576C24.253 25.1079 26.8218 27.6392 29.9783 27.6392C31.4186 27.6392 32.7338 27.1133 33.7498 26.241V27.6392H35.8032V22.256V19.8401H33.7498V21.7685V21.7685Z" fill="white"/>
<path d="M19.9256 19.838V21.7685C19.9256 23.8679 18.2371 25.5697 16.154 25.5697C14.071 25.5697 12.3825 23.8679 12.3825 21.7685V19.838V15.9277H10.3291V19.838V21.9502V22.2538H10.3503C10.3652 22.4441 10.3906 22.6301 10.4224 22.8161C10.4288 22.846 10.4352 22.876 10.4415 22.9059C10.4543 22.9679 10.4649 23.0299 10.4797 23.0919C10.4882 23.1304 10.4988 23.1667 10.5073 23.2031C10.52 23.2565 10.5327 23.3099 10.5476 23.3634C10.5582 23.404 10.5709 23.4425 10.5837 23.481C10.5985 23.5302 10.6133 23.5793 10.6303 23.6285C10.643 23.6691 10.6579 23.7076 10.6727 23.7482C10.6897 23.7953 10.7067 23.8423 10.7237 23.8893C10.7385 23.9299 10.7555 23.9706 10.7724 24.009C10.7915 24.0539 10.8085 24.0988 10.8276 24.1437C10.8446 24.1844 10.8637 24.2228 10.8827 24.2635C10.904 24.3062 10.9231 24.349 10.9443 24.3917C10.9655 24.4345 10.9867 24.4751 11.0079 24.5136C11.0291 24.5542 11.0503 24.597 11.0737 24.6376C11.0949 24.6761 11.1182 24.7146 11.1394 24.753C11.1628 24.7937 11.1861 24.8343 11.2115 24.8728C11.2349 24.9112 11.2603 24.9476 11.2837 24.9861C11.3091 25.0246 11.3346 25.063 11.36 25.1015C11.3855 25.1379 11.4109 25.1742 11.4364 25.2106C11.464 25.249 11.4894 25.2854 11.517 25.3217C11.5446 25.3581 11.5722 25.3923 11.5997 25.4265C11.6273 25.4628 11.657 25.4992 11.6867 25.5334C11.7143 25.5676 11.744 25.6018 11.7737 25.6339C11.8034 25.6681 11.8331 25.7023 11.8649 25.7365C11.8946 25.7685 11.9243 25.8028 11.9561 25.8348C11.9879 25.869 12.0197 25.9011 12.0516 25.9332C12.0834 25.9652 12.1152 25.9952 12.147 26.0272C12.1809 26.0593 12.2128 26.0892 12.2467 26.1213C12.2806 26.1512 12.3125 26.1812 12.3464 26.2111C12.3803 26.241 12.4164 26.271 12.4503 26.3009C12.4843 26.3287 12.5182 26.3565 12.5543 26.3843C12.5903 26.4121 12.6264 26.4399 12.6625 26.4676C12.6985 26.4954 12.7325 26.5211 12.7685 26.5467C12.8067 26.5745 12.8449 26.6002 12.881 26.6259C12.917 26.6515 12.9552 26.675 12.9913 26.7007C13.0294 26.7263 13.0698 26.7499 13.1079 26.7755C13.1461 26.799 13.1822 26.8225 13.2204 26.8439C13.2607 26.8674 13.301 26.891 13.3434 26.9123C13.3816 26.9337 13.4198 26.9551 13.4601 26.9765C13.5025 26.9978 13.5449 27.0192 13.5852 27.0406C13.6255 27.0598 13.6637 27.0791 13.704 27.0983C13.7464 27.1176 13.791 27.1368 13.8334 27.1561C13.8737 27.1732 13.914 27.1903 13.9543 27.2074C13.9989 27.2266 14.0434 27.2416 14.0879 27.2608C14.1283 27.2758 14.1686 27.2929 14.211 27.3078C14.2576 27.325 14.3022 27.3399 14.3489 27.3549C14.3892 27.3677 14.4316 27.3827 14.4719 27.3955C14.5186 27.4105 14.5674 27.4233 14.614 27.4361C14.6564 27.4468 14.6967 27.4596 14.7392 27.4703C14.788 27.4832 14.8389 27.4938 14.8877 27.5045C14.9301 27.5131 14.9704 27.5238 15.0128 27.5323C15.0637 27.543 15.1168 27.5516 15.1698 27.5601C15.2101 27.5665 15.2504 27.5751 15.2907 27.5815C15.3458 27.5901 15.4031 27.5965 15.4583 27.6029C15.4965 27.6072 15.5346 27.6136 15.5728 27.6178C15.6365 27.6243 15.698 27.6285 15.7616 27.6328C15.7934 27.6349 15.8252 27.6392 15.8571 27.6392C15.9525 27.6435 16.048 27.6456 16.1456 27.6456C16.1456 27.6456 16.1456 27.6456 16.1477 27.6456C16.1477 27.6456 16.1477 27.6456 16.1498 27.6456C16.2474 27.6456 16.3428 27.6435 16.4383 27.6392C16.4701 27.6371 16.5019 27.6349 16.5337 27.6328C16.5974 27.6285 16.661 27.6243 16.7225 27.6178C16.7607 27.6136 16.7989 27.6093 16.8371 27.6029C16.8922 27.5965 16.9495 27.5901 17.0047 27.5815C17.045 27.5751 17.0853 27.5687 17.1256 27.5601C17.1786 27.5516 17.2295 27.543 17.2825 27.5323C17.325 27.5238 17.3653 27.5131 17.4077 27.5045C17.4565 27.4938 17.5074 27.4832 17.5562 27.4703C17.5986 27.4596 17.6389 27.4468 17.6813 27.4361C17.7301 27.4233 17.7768 27.4105 17.8235 27.3955C17.8659 27.3827 17.9062 27.3698 17.9465 27.3549C17.9932 27.3399 18.0398 27.325 18.0844 27.3078C18.1247 27.2929 18.1671 27.2779 18.2074 27.2608C18.252 27.2437 18.2965 27.2266 18.341 27.2074C18.3814 27.1903 18.4217 27.1732 18.462 27.1561C18.5065 27.1368 18.5489 27.1176 18.5914 27.0983C18.6317 27.0791 18.6698 27.0598 18.7101 27.0406C18.7526 27.0192 18.795 26.9978 18.8353 26.9765C18.8735 26.9551 18.9117 26.9337 18.952 26.9123C18.9923 26.8888 19.0347 26.8674 19.075 26.8439C19.1132 26.8225 19.1514 26.799 19.1874 26.7755C19.2277 26.752 19.2659 26.7263 19.3041 26.7007C19.3423 26.6772 19.3783 26.6515 19.4144 26.6259C19.4526 26.6002 19.4908 26.5724 19.5268 26.5467C19.5629 26.5211 19.5989 26.4933 19.6329 26.4676C19.6689 26.4399 19.705 26.4121 19.7411 26.3843C19.775 26.3565 19.8111 26.3287 19.845 26.3009C19.8683 26.2816 19.8917 26.2624 19.915 26.241V29.1122C19.915 31.2117 18.2265 32.9135 16.1434 32.9135C14.0604 32.9135 12.3719 31.2117 12.3719 29.1122H10.3291C10.3291 32.3555 12.9361 34.983 16.154 34.983C19.3083 34.983 21.8772 32.4538 21.9747 29.2982H21.979V22.256V21.9524V19.8401V15.9277H19.9256V19.838V19.838Z" fill="white"/>
<ellipse cx="42.1781" cy="36.6072" rx="3.17808" ry="3.1738" fill="#00B94A" stroke="white" stroke-width="0.793451"/>
</svg>
